P3
4 4 255
  0   0   0    0   0   0    0   0   0  255   0 255
  0   0   0    0 255   0    0   0   0    0   0   0
  0   0   0    0   0   0    0 255 128    0   0   0
255   0 255    0   0   0    0   0   0    0   0   0
